PathFileType	4	(X/Y/Z)	c:/Users/goper/Files/vsCode/490R/osim_files/A04/A04_Slow_01.trc
DataRate	CameraRate	NumFrames	NumMarkers	Units                	OrigDataRate	OrigDataStartFrame	OrigNumFrames
120.00	120.00	5	36	mm	120.0	1137	1299
                Frame#	Time	LPSIS			LASIS			LTH1			LTH2			LTH3			LTH4			LLFE			LMFE			LSH1			LSH2			LSH3			LSH4			LLMAL			LMMAL			LCAL			LMTP5			LTOE			LMTP1			RPSIS			RASIS			RTH1			RTH2			RTH3			RTH4			RLFE			RMFE			RSH1			RSH2			RSH3			RSH4			RLMAL			RMMAL			RCAL			RMTP1			RTOE			RMTP5		
		X1	Y1	Z1	X2	Y2	Z2	X3	Y3	Z3	X4	Y4	Z4	X5	Y5	Z5	X6	Y6	Z6	X7	Y7	Z7	X8	Y8	Z8	X9	Y9	Z9	X10	Y10	Z10	X11	Y11	Z11	X12	Y12	Z12	X13	Y13	Z13	X14	Y14	Z14	X15	Y15	Z15	X16	Y16	Z16	X17	Y17	Z17	X18	Y18	Z18	X19	Y19	Z19	X20	Y20	Z20	X21	Y21	Z21	X22	Y22	Z22	X23	Y23	Z23	X24	Y24	Z24	X25	Y25	Z25	X26	Y26	Z26	X27	Y27	Z27	X28	Y28	Z28	X29	Y29	Z29	X30	Y30	Z30	X31	Y31	Z31	X32	Y32	Z32	X33	Y33	Z33	X34	Y34	Z34	X35	Y35	Z35	X36	Y36	Z36

1137	9.46667	-3650.10889	1072.39868	351.43109	-3875.44922	1039.94434	434.20773	0.00000	0.00000	0.00000	0.00000	0.00000	0.00000	-3978.21655	729.82251	473.79663	0.00000	0.00000	0.00000	-4012.61890	578.12622	463.46008	-4026.34131	580.78998	323.88556	-3982.76172	476.40799	467.76407	-3986.22827	433.17044	461.23975	0.00000	0.00000	0.00000	-4040.70435	436.04156	450.66876	-3973.20557	150.53772	423.65775	-3995.29346	152.47163	338.56381	-3905.72485	115.33706	366.63016	-4108.69531	85.71600	457.46341	-4157.23389	97.09908	395.94510	-4138.65869	83.84535	351.30072	0.00000	0.00000	0.00000	-3648.70947	1060.27502	245.22925	0.00000	0.00000	0.00000	-3546.85034	406.57513	134.00505	0.00000	0.00000	0.00000	0.00000	0.00000	0.00000	0.00000	0.00000	0.00000	-3793.74365	736.21173	115.96368	0.00000	0.00000	0.00000	-3606.65210	69.88422	246.19418	0.00000	0.00000	0.00000	0.00000	0.00000	0.00000	0.00000	0.00000	0.00000	-3995.37036	689.45508	472.99619	0.00000	0.00000	0.00000	0.00000	0.00000	0.00000	0.00000	0.00000	0.00000	-3823.04688	57.60209	163.97531
1138	9.47500	-3657.60791	1071.35803	351.21912	-3883.07568	1038.45325	434.27136	0.00000	0.00000	0.00000	0.00000	0.00000	0.00000	-3983.20728	727.01721	472.64758	0.00000	0.00000	0.00000	-4018.65942	575.73096	461.91937	-4032.64795	578.59375	322.37305	-3992.90796	472.93414	466.04797	-4001.60425	430.13901	463.15717	-4052.89209	478.42035	451.37805	-4052.36548	434.80444	449.19006	-3996.41577	146.92853	421.70969	-4018.81274	149.73128	336.70215	0.00000	0.00000	0.00000	-4134.05518	87.41509	456.19467	-4182.47266	100.75614	394.95905	-4164.64551	86.73367	350.14258	0.00000	0.00000	0.00000	-3656.49243	1059.28357	245.07353	-3707.47192	120.41745	301.24445	0.00000	0.00000	0.00000	0.00000	0.00000	0.00000	0.00000	0.00000	0.00000	0.00000	0.00000	0.00000	-3798.37720	735.70221	115.96020	0.00000	0.00000	0.00000	-3606.95288	70.25903	246.25220	0.00000	0.00000	0.00000	0.00000	0.00000	0.00000	0.00000	0.00000	0.00000	-4000.59473	686.60791	471.77975	0.00000	0.00000	0.00000	0.00000	0.00000	0.00000	-3833.03613	63.26202	283.44885	0.00000	0.00000	0.00000
1139	9.48333	-3665.37500	1070.04834	351.11441	-3890.84644	1036.83801	434.32520	0.00000	0.00000	0.00000	0.00000	0.00000	0.00000	-3988.15991	723.96643	471.54337	0.00000	0.00000	0.00000	-4024.29297	573.01288	460.35284	-4038.61719	576.16187	320.89938	-4002.79541	469.49445	464.35263	-4012.86597	426.44196	460.54858	-4062.42041	477.16220	449.99756	-4063.74951	433.66702	447.82092	-4019.09766	143.71725	419.69632	-4041.93701	147.56099	334.84454	0.00000	0.00000	0.00000	-4158.71045	89.57640	455.00534	-4207.09473	104.95592	394.13336	-4190.05908	90.28103	349.15399	0.00000	0.00000	0.00000	-3664.28516	1058.25403	244.91072	0.00000	0.00000	0.00000	0.00000	0.00000	0.00000	0.00000	0.00000	0.00000	-3707.92017	120.60641	301.21188	-3833.11230	63.07787	283.45267	0.00000	0.00000	0.00000	0.00000	0.00000	0.00000	-3607.15552	71.09203	246.09320	0.00000	0.00000	0.00000	0.00000	0.00000	0.00000	0.00000	0.00000	0.00000	-4005.72070	683.66986	470.42795	0.00000	0.00000	0.00000	0.00000	0.00000	0.00000	0.00000	0.00000	0.00000	-3855.58398	83.48518	236.33032
1140	9.49167	-3673.49927	1068.15100	351.16620	-3898.79517	1035.10059	434.33554	0.00000	0.00000	0.00000	-3963.18579	653.46313	470.45532	-3993.13013	720.74573	470.42886	0.00000	0.00000	0.00000	-4029.76685	570.24139	458.86121	-4044.39893	573.67413	319.42123	-4012.35303	466.03482	462.62799	-4023.91211	423.35629	458.70483	-4071.54004	475.89029	448.60172	-4074.45435	432.40793	446.37872	-4041.28857	140.99515	417.65451	-4064.65015	145.96754	333.02490	0.00000	0.00000	0.00000	-4182.60205	92.19387	453.86896	-4230.82520	109.52307	393.35712	-4214.66602	94.36263	348.27487	0.00000	0.00000	0.00000	-3672.12524	1057.12708	244.76044	0.00000	0.00000	0.00000	0.00000	0.00000	0.00000	0.00000	0.00000	0.00000	-3708.35571	120.77215	301.17032	0.00000	0.00000	0.00000	-3715.20337	507.51837	265.01883	0.00000	0.00000	0.00000	-3606.96704	70.81680	246.03452	0.00000	0.00000	0.00000	0.00000	0.00000	0.00000	0.00000	0.00000	0.00000	-4010.44604	680.25269	469.03592	0.00000	0.00000	0.00000	0.00000	0.00000	0.00000	-3807.83057	734.72382	115.81120	0.00000	0.00000	0.00000
1141	9.50000	-3681.52515	1066.80432	351.07211	-3906.70093	1033.13586	434.33896	0.00000	0.00000	0.00000	-3968.28662	650.37994	468.66998	-3997.96118	717.31104	469.17538	0.00000	0.00000	0.00000	-4034.89478	567.32355	457.30405	-4050.15430	571.25446	317.95416	-4021.55884	462.61145	460.88739	-4034.45581	420.20514	456.94666	-4080.25317	474.53659	447.21274	-4084.84790	431.28525	444.97720	-4062.94165	138.82436	415.58200	-4086.78027	144.87154	331.14658	0.00000	0.00000	0.00000	-4205.70312	95.35062	452.84073	-4253.69189	114.62582	392.72021	-4238.49023	98.90213	347.49130	0.00000	0.00000	0.00000	-3680.01318	1055.98730	244.72734	0.00000	0.00000	0.00000	0.00000	0.00000	0.00000	0.00000	0.00000	0.00000	-3708.74341	120.87371	301.11893	-3833.31738	62.65851	283.52618	0.00000	0.00000	0.00000	0.00000	0.00000	0.00000	-3607.21289	71.20490	246.10918	0.00000	0.00000	0.00000	0.00000	0.00000	0.00000	0.00000	0.00000	0.00000	-4015.19897	676.66992	467.73206	0.00000	0.00000	0.00000	0.00000	0.00000	0.00000	0.00000	0.00000	0.00000	-3812.74194	734.34174	115.78146
